# xmcd
# 
# Track frame offsets:
#     150
#     27783
#     61371
#     112969
#     137718
#     178467
#     215631
#     256767
# 
# Disc length: 3812
# 
# Revision: 1
# Processed by: cddbd v1.5.2PL0 Copyright (c) Steve Scherf et al.
# Submitted via: fre:ac v1.0.31
# 
DISCID=720ee208
DTITLE=Marc Miralta Quartet - Dreams
DYEAR=2007
DGENRE=Jazz
TTITLE0=Dreams
TTITLE1=Way out Willy
TTITLE2=Cami del Bosc
TTITLE3=Be careful what your dream...
TTITLE4=Ara sí!
TTITLE5=Dim. Blues
TTITLE6=Pentatakin
TTITLE7=Estern
EXTD=YEAR: 2008
EXTT0=
EXTT1=
EXTT2=
EXTT3=
EXTT4=
EXTT5=
EXTT6=
EXTT7=
PLAYORDER=
